<svg width="846.6600000000001" height="846.6600000000001" xmlns="http://www.w3.org/2000/svg">

 <g>
  <title>background</title>
  <rect fill="none" id="canvas_background" height="402" width="582" y="-1" x="-1"/>
 </g>
 <g>
  <title>Layer 1</title>
  <path stroke="#fff" fill-rule="nonzero" fill="#267cb9" id="svg_1" d="m91.82,580.72l0,-437.87c0,-72.81 59.49,-132.3 132.3,-132.3l462.04,0c72.81,0 132.3,59.49 132.3,132.3l0,485.13c0,72.81 -59.5,132.3 -132.3,132.3l-402.56,0l0,55.19c0,11.4 -9.25,20.65 -20.65,20.65l-214.1,0c-11.4,0 -20.65,-9.25 -20.65,-20.65l0,-214.1c0,-11.4 9.25,-20.65 20.65,-20.65l42.97,0zm-5.74,141.11c-14.51,-22.78 20.16,-44.88 34.68,-22.1l15.05,23.57l55.79,-78.51c15.68,-22.03 49.23,1.83 33.55,23.87l-73.49,103.37c-8.34,11.74 -26.19,11.52 -34.09,-0.87l-31.49,-49.33zm691.09,-161.74l-396.67,0c-27.16,0 -27.16,-41.29 0,-41.29l396.67,0l0,-375.95c0,-50.01 -41,-91.01 -91.01,-91.01l-462.04,0c-50.01,0 -91.01,41 -91.01,91.01l0,437.87l129.84,0c11.4,0 20.65,9.25 20.65,20.65l0,117.62l402.56,0c50.01,0 91.01,-41 91.01,-91.01l0,-67.89zm-538.05,-137.14c0,27.15 -41.29,27.15 -41.29,0c0,-59.49 33.15,-113.75 85.69,-141.18c-17.87,-18.81 -27.97,-43.76 -27.97,-69.78c0,-56.03 45.43,-101.46 101.46,-101.46c56.03,0 101.46,45.43 101.46,101.46c0,26.02 -10.1,50.97 -27.97,69.78c52.54,27.43 85.69,81.69 85.69,141.18c0,27.15 -41.29,27.15 -41.29,0c0,-53.61 -36.08,-100.54 -87.95,-114.09c-9.59,2.98 -19.91,4.59 -29.94,4.59c-10.03,0 -20.36,-1.61 -29.94,-4.59c-51.87,13.55 -87.95,60.48 -87.95,114.09zm117.89,-150.79c33.61,0 60.17,-26.82 60.17,-60.17c0,-33.23 -26.94,-60.17 -60.17,-60.17c-33.23,0 -60.17,26.94 -60.17,60.17c0,34.2 27.34,60.17 60.17,60.17zm208.85,172.48c-27.15,0 -27.15,-41.29 0,-41.29l125.95,0c27.15,0 27.15,41.29 0,41.29l-125.95,0zm0,-121.74c-27.15,0 -27.15,-41.29 0,-41.29l125.95,0c27.15,0 27.15,41.29 0,41.29l-125.95,0zm0,-121.75c-27.15,0 -27.15,-41.29 0,-41.29l125.95,0c27.15,0 27.15,41.29 0,41.29l-125.95,0zm-323.55,420.86l-172.82,0l0,172.81l172.82,0l0,-172.81z" class="fil0"/>
 </g>
</svg>