<svg width="846.66" height="846.66" xmlns="http://www.w3.org/2000/svg">

 <g>
  <title>background</title>
  <rect fill="none" id="canvas_background" height="402" width="582" y="-1" x="-1"/>
 </g>
 <g>
  <title>Layer 1</title>
  <path fill-rule="nonzero" fill="#267cb9" id="svg_1" d="m84.33,10.65l678,0c11.4,0 20.64,9.24 20.64,20.64l0,784.08c0,11.4 -9.24,20.64 -20.64,20.64l-678,0c-11.4,0 -20.64,-9.24 -20.64,-20.64l0,-784.08c0,-11.4 9.24,-20.64 20.64,-20.64zm580.44,41.29l0,416.92c0,27.15 -41.29,27.15 -41.29,0l0,-416.92l-518.5,0l0,742.78l636.7,0l0,-742.78l-76.91,0zm-485.89,474.46c-27.15,0 -27.15,-41.29 0,-41.29l350.53,0c27.16,0 27.16,41.29 0,41.29l-350.53,0zm0,172.96c-27.15,0 -27.15,-41.29 0,-41.29l350.53,0c27.16,0 27.16,41.29 0,41.29l-350.53,0zm0,-86.48c-27.15,0 -27.15,-41.29 0,-41.29l350.53,0c27.16,0 27.16,41.29 0,41.29l-350.53,0zm175.26,-436.19c46.22,0 83.69,37.47 83.69,83.68c0,20.48 -7.36,39.24 -19.57,53.78c15.82,10.32 28.95,24.28 38.24,40.72c14.16,-20.24 22.47,-44.88 22.47,-71.46c0,-68.94 -55.89,-124.83 -124.83,-124.83c-68.94,0 -124.82,55.89 -124.82,124.83c0,26.58 8.31,51.22 22.47,71.46c9.29,-16.44 22.43,-30.41 38.24,-40.72c-12.21,-14.54 -19.57,-33.3 -19.57,-53.78c0,-46.21 37.47,-83.68 83.68,-83.68zm24.58,163.7c-7.77,2.38 -16.02,3.67 -24.58,3.67c-8.55,0 -16.8,-1.29 -24.57,-3.67c-21.56,7.3 -38.88,24.07 -46.94,45.34c20.25,14.18 44.91,22.5 71.51,22.5c26.61,0 51.26,-8.32 71.52,-22.5c-8.06,-21.27 -25.38,-38.04 -46.94,-45.34zm-24.58,-122.41c-23.41,0 -42.39,18.98 -42.39,42.39c0,23.42 18.98,42.4 42.39,42.4c23.42,0 42.4,-18.98 42.4,-42.4c0,-23.41 -18.98,-42.39 -42.4,-42.39zm0,-100.69c91.75,0 166.12,74.38 166.12,166.12c0,91.74 -74.37,166.12 -166.12,166.12c-91.74,0 -166.11,-74.38 -166.11,-166.12c0,-91.74 74.38,-166.12 166.11,-166.12z" class="fil0"/>
 </g>
</svg>